<?xml version="1.0" encoding="utf-8"?>
<!-- Generator: Adobe Illustrator 27.1.1, SVG Export Plug-In . SVG Version: 6.00 Build 0)  -->
<svg version="1.1" id="Layer_1" xmlns="http://www.w3.org/2000/svg" xmlns:xlink="http://www.w3.org/1999/xlink" x="0px" y="0px"
	 viewBox="0 0 171 36" style="enable-background:new 0 0 171 36;" xml:space="preserve">
<style type="text/css">
	.st0{fill-rule:evenodd;clip-rule:evenodd;fill:url(#SVGID_1_);}
	.st1{fill:#FFFFFF;}
	.st2{font-family:'UrbanHeroes';}
	.st3{font-size:23.9159px;}
	.st4{font-family:'UrbanBlockerpersonaluse-Solid';}
</style>
<linearGradient id="SVGID_1_" gradientUnits="userSpaceOnUse" x1="15" y1="35" x2="15" y2="5" gradientTransform="matrix(1 0 0 -1 0 38)">
	<stop  offset="0" style="stop-color:#877EFF"/>
	<stop  offset="0.4615" style="stop-color:#685DFF"/>
	<stop  offset="1" style="stop-color:#3121FF"/>
</linearGradient>
<path class="st0" d="M27.8,18c0,7.1-5.7,12.8-12.8,12.8C7.9,30.8,2.2,25.1,2.2,18S7.9,5.2,15,5.2C22.1,5.2,27.8,10.9,27.8,18z
	 M30,18c0,8.3-6.7,15-15,15C6.7,33,0,26.3,0,18C0,9.7,6.7,3,15,3C23.3,3,30,9.7,30,18z M23.3,11.3c0,0.9-0.7,1.6-1.6,1.6
	c-0.9,0-1.6-0.7-1.6-1.6s0.7-1.6,1.6-1.6C22.6,9.7,23.3,10.4,23.3,11.3z M10.5,19.2c0.7,2.5,3.2,4,5.7,3.3c2.5-0.7,4-3.2,3.3-5.7
	s-3.2-4-5.7-3.3S9.8,16.7,10.5,19.2z M8.4,19.8c1,3.6,4.7,5.8,8.4,4.8c3.6-1,5.8-4.7,4.8-8.4c-1-3.6-4.7-5.8-8.4-4.8
	C9.6,12.4,7.4,16.1,8.4,19.8z"/>
<text transform="matrix(1.0968 0 0 1 32.9678 23.7158)"><tspan x="0" y="0" class="st1 st2 st3">T</tspan><tspan x="17.1" y="0" class="st1 st4 st3">erry</tspan><tspan x="53.5" y="0" class="st1 st2 st3">G</tspan><tspan x="67.2" y="0" class="st1 st4 st3">ram</tspan></text>
</svg>
